<?xml version="1.0" standalone="no"?>
<!DOCTYPE svg PUBLIC "-//W3C//DTD SVG 20010904//EN"
 "http://www.w3.org/TR/2001/REC-SVG-20010904/DTD/svg10.dtd">
<svg version="1.0" xmlns="http://www.w3.org/2000/svg"
 width="864.000000pt" height="864.000000pt" viewBox="0 0 864.000000 864.000000"
 preserveAspectRatio="xMidYMid meet">
<metadata>
Created by potrace 1.11, written by Peter Selinger 2001-2013
</metadata>
<g transform="translate(0.000000,864.000000) scale(0.100000,-0.100000)"
fill="#000000" stroke="none">
<path d="M4575 6615 l-25 -24 0 -261 0 -261 25 -24 c34 -34 103 -35 142 -1 27
23 27 26 28 137 l0 114 -27 3 c-37 4 -45 -17 -46 -117 -1 -82 -10 -106 -37
-98 -6 2 -11 95 -13 244 -2 218 -1 241 14 247 30 11 38 -11 37 -103 -1 -97 2
-105 34 -115 32 -10 43 19 43 114 0 129 -26 170 -110 170 -30 0 -47 -6 -65
-25z"/>
<path d="M2480 6330 l0 -300 23 0 c40 0 47 18 47 117 l0 93 34 0 c22 0 44 8
60 23 24 21 25 28 26 132 3 181 2 184 -25 210 -21 22 -33 25 -95 25 l-70 0 0
-300z m122 215 c8 -37 3 -219 -6 -233 -4 -7 -16 -12 -27 -12 -18 0 -19 8 -19
135 l0 135 24 0 c17 0 25 -7 28 -25z"/>
<path d="M2930 6330 l0 -300 74 0 c41 0 77 3 79 8 3 4 1 17 -4 30 -6 17 -16
22 -44 22 l-35 0 0 105 0 105 30 0 c18 0 33 7 38 18 15 27 3 42 -34 42 l-34 0
0 104 0 105 38 3 c32 3 37 7 40 31 l3 27 -75 0 -76 0 0 -300z"/>
<path d="M3320 6330 l0 -300 23 0 c41 0 47 17 47 133 0 107 0 108 23 105 21
-3 22 -8 27 -110 3 -60 10 -112 16 -118 7 -7 22 -10 35 -8 24 3 24 5 24 119 0
84 -4 121 -14 132 -11 14 -11 20 -1 32 16 19 23 198 9 247 -14 53 -41 68 -121
68 l-68 0 0 -300z m115 230 c4 -6 7 -55 7 -110 0 -108 -4 -120 -33 -120 -18 0
-19 8 -19 120 0 112 1 120 19 120 11 0 23 -5 26 -10z"/>
<path d="M3780 6330 l0 -300 23 0 c42 0 47 17 47 147 l0 123 30 0 c18 0 33 7
38 18 15 27 3 42 -34 42 l-34 0 0 105 0 105 35 0 c28 0 38 5 44 23 5 12 7 25
4 30 -2 4 -38 7 -79 7 l-74 0 0 -300z"/>
<path d="M4150 6330 l0 -300 74 0 c41 0 77 3 79 8 3 4 1 17 -4 30 -6 17 -16
22 -44 22 l-35 0 0 105 0 105 30 0 c19 0 33 7 40 20 15 28 5 40 -36 40 l-34 0
0 105 0 105 35 0 c28 0 38 5 44 23 5 12 7 25 4 30 -2 4 -38 7 -79 7 l-74 0 0
-300z"/>
<path d="M4980 6612 c0 -23 19 -42 42 -42 16 0 18 -18 20 -267 l3 -268 30 0
30 0 3 268 c2 249 4 267 20 267 23 0 42 19 42 42 0 16 -10 18 -95 18 -85 0
-95 -2 -95 -18z"/>
<path d="M5410 6330 l0 -300 74 0 c41 0 77 3 79 8 3 4 1 17 -4 30 -6 17 -16
22 -44 22 l-35 0 0 254 c0 140 -3 261 -6 270 -4 10 -18 16 -35 16 l-29 0 0
-300z"/>
<path d="M5803 6583 c4 -27 14 -93 23 -148 9 -55 19 -167 23 -250 l6 -150 30
0 30 0 6 150 c4 83 16 210 28 283 26 166 26 162 -3 162 -36 0 -44 -17 -52
-115 l-8 -90 -12 100 c-7 55 -13 101 -13 103 -1 1 -15 2 -32 2 l-32 0 6 -47z"/>
<path d="M3390 4575 l0 -985 38 0 37 0 233 503 232 503 -94 195 c-51 107 -149
309 -218 449 -68 140 -131 270 -139 288 -12 28 -19 32 -51 32 l-38 0 0 -985z"/>
</g>
</svg>
